<?xml version="1.0" standalone="no"?>
<!DOCTYPE svg PUBLIC "-//W3C//DTD SVG 20010904//EN"
 "http://www.w3.org/TR/2001/REC-SVG-20010904/DTD/svg10.dtd">
<svg version="1.0" xmlns="http://www.w3.org/2000/svg"
 width="300.000000pt" height="283.000000pt" viewBox="0 0 300.000000 283.000000"
 preserveAspectRatio="xMidYMid meet">
<g transform="translate(0.000000,283.000000) scale(0.100000,-0.100000)"
fill="#000000" stroke="none">
<path d="M688 2543 c-20 -16 -51 -53 -69 -83 -31 -50 -34 -62 -34 -135 0 -70
4 -89 32 -146 19 -39 52 -84 79 -109 127 -117 299 -144 979 -155 348 -5 497
-18 635 -55 107 -28 196 -104 219 -185 15 -56 14 -156 -3 -196 -35 -85 -178
-204 -295 -247 -118 -43 -332 -61 -836 -72 -423 -8 -456 -10 -545 -32 -172
-43 -220 -83 -220 -185 0 -161 186 -285 491 -327 231 -32 326 -53 381 -83 66
-38 84 -63 99 -138 11 -53 10 -68 -6 -118 -15 -47 -16 -60 -5 -70 10 -10 12
-9 7 4 -3 9 1 36 10 60 17 50 10 156 -13 201 -21 41 -132 103 -203 114 -20 3
-72 11 -116 19 -44 8 -118 19 -165 26 -190 25 -307 74 -401 168 -48 48 -58 65
-64 104 -15 101 17 152 120 188 125 44 201 51 645 59 561 11 750 31 875 92 70
34 105 60 173 126 73 71 92 115 92 209 -2 210 -102 285 -450 333 -47 7 -285
16 -530 21 -313 5 -473 12 -541 23 -252 40 -367 117 -422 280 -28 81 -22 139
18 212 33 59 78 104 104 104 6 0 11 5 11 10 0 16 -15 12 -52 -17z"/>
</g>
</svg>
